<svg xmlns="http://www.w3.org/2000/svg" viewBox="0 0 64 64">
  <defs>
    <linearGradient id="rpAceite" x1="0" y1="0" x2="1" y2="1">
      <stop offset="0%" stop-color="#fff6bf"/>
      <stop offset="100%" stop-color="#ffd200"/>
    </linearGradient>
  </defs>
  <!-- Escudo -->
  <path d="M32 4L12 16v17c0 11.7 7.7 22.2 20 26.1c12.3-3.9 20-14.4 20-26.1V16L32 4z"
        fill="url(#rpAceite)" stroke="#101528" stroke-width="2" />
  <!-- Botella -->
  <rect x="28" y="20" width="8" height="22" rx="3"
        fill="#fffde7" stroke="#101528" stroke-width="1.6"/>
  <rect x="29.5" y="16" width="5" height="4" rx="1.5"
        fill="#101528" />
  <!-- Líquido -->
  <rect x="29.5" y="26" width="5" height="13" rx="2"
        fill="#ffd200" opacity="0.9"/>
  <!-- Gotita decorativa -->
  <path d="M22 38c0-3 3-5.5 3-5.5s3 2.5 3 5.5c0 2-1.4 3.5-3 3.5s-3-1.5-3-3.5z"
        fill="#ffd200" stroke="#101528" stroke-width="1"/>
</svg>
