<svg xmlns="http://www.w3.org/2000/svg" viewBox="0 0 64 64">
  <defs>
    <linearGradient id="rpLicores" x1="0" y1="0" x2="1" y2="1">
      <stop offset="0%" stop-color="#ffe4f0"/>
      <stop offset="100%" stop-color="#ff9acb"/>
    </linearGradient>
  </defs>
  <!-- Escudo -->
  <path d="M32 4L12 16v17c0 11.7 7.7 22.2 20 26.1c12.3-3.9 20-14.4 20-26.1V16L32 4z"
        fill="url(#rpLicores)" stroke="#101528" stroke-width="2" />
  <!-- Botella -->
  <rect x="36" y="18" width="7" height="22" rx="3"
        fill="#ffffff" stroke="#101528" stroke-width="1.4"/>
  <rect x="37.5" y="14" width="4" height="4" rx="1.5"
        fill="#101528" />
  <rect x="37.5" y="26" width="4" height="9" rx="2"
        fill="#d81b60" opacity="0.9"/>

  <!-- Copa -->
  <path d="M18 22h10c0 4-1.8 7.2-4 8.8V34h-2v-3.2C19.8 29.2 18 26 18 22z"
        fill="#ffffff" stroke="#101528" stroke-width="1.4"/>
  <path d="M19 23h8v3.5c-1.2 0.8-2.6 1.2-4 1.2s-2.8-0.4-4-1.2V23z"
        fill="#d81b60" opacity="0.9"/>
  <rect x="22" y="34" width="2" height="4" fill="#101528"/>
  <rect x="19" y="38" width="8" height="2.2" rx="1.1"
        fill="#ffffff" stroke="#101528" stroke-width="1"/>
</svg>
