<svg xmlns="http://www.w3.org/2000/svg" viewBox="0 0 64 64">
  <defs>
    <linearGradient id="rpPrep" x1="0" y1="0" x2="1" y2="1">
      <stop offset="0%" stop-color="#ffe8c2"/>
      <stop offset="100%" stop-color="#ffb347"/>
    </linearGradient>
  </defs>
  <!-- Escudo -->
  <path d="M32 4L12 16v17c0 11.7 7.7 22.2 20 26.1c12.3-3.9 20-14.4 20-26.1V16L32 4z"
        fill="url(#rpPrep)" stroke="#101528" stroke-width="2" />
  <!-- Plato -->
  <ellipse cx="32" cy="40" rx="14" ry="4" fill="#ffffff" stroke="#101528" stroke-width="1.5"/>
  <!-- Presa de pollo (tipo muslo) -->
  <path d="M24 30c0-4 3-7 7-7c3.5 0 6 2.3 6 6c0 3.5-2.5 6-6.5 6h-3.5z"
        fill="#ffcc80" stroke="#101528" stroke-width="1.5"/>
  <!-- Hueso -->
  <rect x="35" y="29" width="6" height="3" rx="1.5" fill="#ffffff" stroke="#101528" stroke-width="1"/>
  <circle cx="42" cy="28.5" r="1.6" fill="#ffffff" stroke="#101528" stroke-width="1"/>
  <circle cx="42" cy="32.5" r="1.6" fill="#ffffff" stroke="#101528" stroke-width="1"/>
</svg>
